<svg width="54" height="54" viewBox="0 0 54 54" fill="none" xmlns="http://www.w3.org/2000/svg">
<path d="M26.6259 0.251831C19.3878 0.251831 18.4857 0.286782 15.653 0.406614C12.8087 0.546417 10.8847 0.987464 9.18709 1.64654C7.43622 2.33224 5.94498 3.24263 4.47205 4.72388C2.98913 6.19681 2.07042 7.68805 1.39471 9.43892C0.735633 11.1365 0.294586 13.0605 0.154782 15.9048C0.0266292 18.7392 0 19.6396 0 26.8777C0 34.1159 0.0349509 35.018 0.154782 37.8507C0.294586 40.6867 0.735633 42.619 1.39471 44.3166C2.08041 46.0674 2.9908 47.5587 4.47205 49.0316C5.94498 50.5145 7.43622 51.4332 9.18709 52.109C10.8847 52.7597 12.817 53.2091 15.653 53.3489C18.4874 53.477 19.3878 53.5037 26.6259 53.5037C33.8641 53.5037 34.7661 53.4687 37.5988 53.3489C40.4348 53.2091 42.3671 52.758 44.0647 52.109C45.8156 51.4232 47.3068 50.5129 48.7798 49.0316C50.2627 47.5587 51.1814 46.0758 51.8571 44.3166C52.5079 42.619 52.9572 40.6867 53.097 37.8507C53.2252 35.0163 53.2518 34.1159 53.2518 26.8777C53.2518 19.6396 53.2169 18.7375 53.097 15.9048C52.9572 13.0688 52.5062 11.1265 51.8571 9.43892C51.1714 7.68805 50.261 6.19681 48.7798 4.72388C47.3068 3.24096 45.8239 2.32225 44.0647 1.64654C42.3671 0.987464 40.4348 0.546417 37.5988 0.406614C34.7645 0.27846 33.8641 0.251831 26.6259 0.251831ZM26.6259 5.04509C33.7343 5.04509 34.5831 5.08005 37.3924 5.19988C39.9838 5.32137 41.3952 5.7541 42.3322 6.12025C43.5821 6.60457 44.4559 7.1771 45.4012 8.11245C46.3282 9.03948 46.9007 9.92324 47.3851 11.1731C47.7512 12.1102 48.1839 13.5215 48.3054 16.1129C48.4253 18.9223 48.4602 19.7727 48.4602 26.8794C48.4602 33.9861 48.4253 34.8366 48.2955 37.6459C48.1557 40.2373 47.7229 41.6487 47.3584 42.5857C46.8542 43.8356 46.2916 44.7094 45.3629 45.6547C44.4259 46.5817 43.5338 47.1542 42.2939 47.6386C41.3685 48.0047 39.9372 48.4374 37.3359 48.5589C34.5115 48.6788 33.6793 48.7137 26.5527 48.7137C19.426 48.7137 18.5955 48.6788 15.7678 48.549C13.1765 48.4091 11.7468 47.9764 10.8098 47.6119C9.54492 47.1076 8.6778 46.5451 7.74911 45.6164C6.81209 44.6794 6.21626 43.7873 5.75691 42.5474C5.3841 41.622 4.95803 40.1907 4.81989 37.5894C4.72503 34.7983 4.68009 33.9328 4.68009 26.8395C4.68009 19.7494 4.72503 18.8823 4.81989 16.0563C4.95803 13.4549 5.3841 12.0269 5.75691 11.0983C6.21626 9.8317 6.81376 8.96625 7.74911 8.02923C8.67614 7.1022 9.54492 6.50305 10.8098 6.03371C11.7468 5.66922 13.1415 5.23649 15.7429 5.10667C18.5672 5.00515 19.3994 4.96854 26.5161 4.96854L26.6259 5.04509ZM26.6259 13.212C19.0682 13.212 12.9568 19.3317 12.9568 26.8811C12.9568 34.4388 19.0765 40.5502 26.6259 40.5502C34.1836 40.5502 40.295 34.4305 40.295 26.8811C40.295 19.3234 34.1753 13.212 26.6259 13.212ZM26.6259 35.7569C21.7195 35.7569 17.7501 31.7875 17.7501 26.8811C17.7501 21.9746 21.7195 18.0052 26.6259 18.0052C31.5324 18.0052 35.5018 21.9746 35.5018 26.8811C35.5018 31.7875 31.5324 35.7569 26.6259 35.7569ZM44.0414 12.6661C44.0414 14.4352 42.6018 15.8632 40.8409 15.8632C39.0718 15.8632 37.6438 14.4336 37.6438 12.6661C37.6438 10.9069 39.0817 9.47553 40.8409 9.47553C42.6001 9.47553 44.0414 10.9069 44.0414 12.6661Z" fill="#F7F7F7"/>
</svg>
