<svg width="76" height="21" viewBox="0 0 76 21" fill="none" xmlns="http://www.w3.org/2000/svg">
<path d="M13.4452 1.90231C12.5052 1.25587 11.2785 0.931866 9.76517 0.931866H3.90636C3.44243 0.931866 3.18612 1.16395 3.13744 1.62768L0.757471 16.5718C0.732735 16.7186 0.769446 16.8528 0.867269 16.9748C0.964531 17.0971 1.08686 17.1579 1.23337 17.1579H4.01627C4.50437 17.1579 4.77266 16.9264 4.8219 16.4621L5.48091 12.4332C5.50498 12.2379 5.59082 12.0792 5.73733 11.9569C5.88373 11.8349 6.06684 11.755 6.28655 11.7185C6.50626 11.6823 6.71343 11.6639 6.90907 11.6639C7.10416 11.6639 7.33595 11.6763 7.60491 11.7006C7.87319 11.7249 8.04421 11.7369 8.11752 11.7369C10.2168 11.7369 11.8645 11.1452 13.0609 9.96046C14.2567 8.7764 14.8553 7.13443 14.8553 5.03388C14.8553 3.59321 14.3849 2.54977 13.4452 1.90231ZM10.4245 6.38958C10.3021 7.24437 9.9851 7.80573 9.47248 8.07443C8.95975 8.34346 8.22743 8.47736 7.27551 8.47736L6.06706 8.51386L6.6897 4.59456C6.73828 4.3262 6.89687 4.19185 7.1656 4.19185H7.86155C8.83753 4.19185 9.5459 4.33258 9.98532 4.61292C10.4245 4.89393 10.571 5.4863 10.4245 6.38958Z" fill="#003087"/>
<path d="M75.2735 0.931641H72.5642C72.2949 0.931641 72.1364 1.06599 72.088 1.3348L69.7079 16.5722L69.6711 16.6455C69.6711 16.7682 69.7199 16.8836 69.8179 16.9935C69.9149 17.1033 70.0376 17.1582 70.1839 17.1582H72.601C73.064 17.1582 73.3204 16.9267 73.37 16.4624L75.75 1.48135V1.44497C75.7499 1.10294 75.5907 0.931641 75.2735 0.931641Z" fill="#009CDE"/>
<path d="M42.5378 6.82957C42.5378 6.70776 42.4888 6.59155 42.3918 6.48194C42.2938 6.37211 42.1839 6.3168 42.0621 6.3168H39.2426C38.9736 6.3168 38.7539 6.43951 38.5833 6.68302L34.702 12.3972L33.0908 6.90301C32.9682 6.51262 32.7 6.3168 32.2853 6.3168H29.5386C29.4162 6.3168 29.3064 6.37189 29.2094 6.48194C29.1115 6.59155 29.0629 6.70798 29.0629 6.82957C29.0629 6.87872 29.3009 7.59883 29.7768 8.99069C30.2527 10.383 30.7654 11.8848 31.3147 13.4965C31.864 15.1079 32.1507 15.9631 32.1752 16.0599C30.1733 18.7953 29.1728 20.2603 29.1728 20.4554C29.1728 20.7731 29.3312 20.9316 29.6488 20.9316H32.4683C32.7367 20.9316 32.9563 20.8098 33.1275 20.5655L42.4651 7.08584C42.5135 7.03748 42.5378 6.9525 42.5378 6.82957Z" fill="#003087"/>
<path d="M68.7931 6.3168H66.0101C65.6679 6.3168 65.4612 6.71985 65.3879 7.52584C64.7524 6.54934 63.5936 6.06042 61.9088 6.06042C60.1513 6.06042 58.6559 6.71985 57.4234 8.03849C56.1904 9.35713 55.5742 10.9082 55.5742 12.6906C55.5742 14.1316 55.9953 15.2791 56.8373 16.1335C57.6795 16.9887 58.8084 17.4155 60.2248 17.4155C60.9326 17.4155 61.6528 17.2687 62.3851 16.976C63.1174 16.683 63.6906 16.2925 64.1064 15.8039C64.1064 15.8284 64.0814 15.9379 64.0332 16.1331C63.9838 16.3288 63.9597 16.4758 63.9597 16.5727C63.9597 16.9639 64.118 17.1587 64.4359 17.1587H66.9627C67.4259 17.1587 67.6948 16.9271 67.7678 16.4629L69.2693 6.90279C69.2934 6.75613 69.2569 6.62211 69.1594 6.49986C69.0613 6.37805 68.9395 6.3168 68.7931 6.3168ZM64.0146 13.5329C63.3921 14.1434 62.6413 14.4485 61.7626 14.4485C61.0543 14.4485 60.4811 14.2535 60.0415 13.8625C59.6018 13.4727 59.3821 12.9354 59.3821 12.2509C59.3821 11.3481 59.6874 10.5843 60.2979 9.9617C60.9073 9.33899 61.6648 9.02775 62.5681 9.02775C63.251 9.02775 63.8187 9.22916 64.2708 9.63187C64.722 10.0349 64.9485 10.5905 64.9485 11.2988C64.9483 12.1778 64.637 12.9228 64.0146 13.5329Z" fill="#009CDE"/>
<path d="M27.1952 6.3168H24.4122C24.0699 6.3168 23.8629 6.71985 23.7895 7.52584C23.1304 6.54934 21.9708 6.06042 20.3108 6.06042C18.5532 6.06042 17.0577 6.71985 15.8251 8.03849C14.5921 9.35713 13.976 10.9082 13.976 12.6906C13.976 14.1316 14.3972 15.2791 15.2394 16.1335C16.0816 16.9887 17.2104 17.4155 18.6265 17.4155C19.3097 17.4155 20.018 17.2687 20.7502 16.976C21.4826 16.683 22.0685 16.2925 22.5079 15.8039C22.41 16.0966 22.3614 16.3531 22.3614 16.5727C22.3614 16.9639 22.52 17.1587 22.8374 17.1587H25.364C25.8275 17.1587 26.0963 16.9271 26.1696 16.4629L27.6709 6.90279C27.6949 6.75613 27.6584 6.62211 27.5611 6.49986C27.4634 6.37805 27.3415 6.3168 27.1952 6.3168ZM22.4166 13.5511C21.7939 14.15 21.0307 14.4485 20.128 14.4485C19.4197 14.4485 18.8521 14.2535 18.4252 13.8625C17.9978 13.4727 17.7843 12.9354 17.7843 12.2509C17.7843 11.3481 18.0893 10.5843 18.6999 9.9617C19.3098 9.33899 20.0666 9.02764 20.9702 9.02764C21.6534 9.02764 22.2209 9.22916 22.673 9.63187C23.1243 10.0349 23.3504 10.5905 23.3504 11.2988C23.3502 12.2023 23.0391 12.9534 22.4166 13.5511Z" fill="#003087"/>
<path d="M55.0432 1.90231C54.1032 1.25587 52.8769 0.931866 51.3632 0.931866H45.5409C45.0525 0.931866 44.7838 1.16395 44.7353 1.62768L42.3552 16.5718C42.3304 16.7186 42.3671 16.8528 42.4651 16.9748C42.5619 17.0971 42.6846 17.1579 42.8311 17.1579H45.8336C46.1265 17.1579 46.3217 16.9994 46.4196 16.6818L47.0787 12.4332C47.103 12.2379 47.1884 12.0792 47.3351 11.9569C47.4816 11.8349 47.6645 11.755 47.8845 11.7185C48.1039 11.6823 48.3111 11.6639 48.5069 11.6639C48.7021 11.6639 48.9337 11.6763 49.2025 11.7006C49.4709 11.7249 49.6423 11.7369 49.7151 11.7369C51.8148 11.7369 53.4622 11.1452 54.6586 9.96046C55.8548 8.7764 56.4529 7.13443 56.4529 5.03388C56.453 3.59321 55.9828 2.54965 55.0432 1.90231ZM51.29 7.92776C50.7529 8.29398 49.9471 8.47703 48.8733 8.47703L47.7013 8.51375L48.3239 4.59434C48.3722 4.32609 48.5309 4.19151 48.7998 4.19151H49.4587C49.9958 4.19151 50.4229 4.21603 50.7408 4.26473C51.0575 4.31377 51.3632 4.46614 51.6561 4.72242C51.9492 4.97891 52.0955 5.35151 52.0955 5.83964C52.0955 6.86562 51.8267 7.56121 51.29 7.92776Z" fill="#009CDE"/>
</svg>
