<svg width="33" height="28" viewBox="0 0 33 28" fill="none" xmlns="http://www.w3.org/2000/svg">
<path d="M16.2675 27.4507C16.0562 27.4519 15.8468 27.4114 15.6511 27.3315C15.4555 27.2516 15.2776 27.1339 15.1275 26.9851L2.65181 14.4933C1.0869 12.912 0.209106 10.7771 0.209106 8.55244C0.209106 6.32773 1.0869 4.19288 2.65181 2.61162C4.22896 1.03892 6.36536 0.155762 8.59263 0.155762C10.8199 0.155762 12.9563 1.03892 14.5335 2.61162L16.2675 4.3457L18.0016 2.61162C19.5788 1.03892 21.7152 0.155762 23.9424 0.155762C26.1697 0.155762 28.3061 1.03892 29.8833 2.61162C31.4482 4.19288 32.326 6.32773 32.326 8.55244C32.326 10.7771 31.4482 12.912 29.8833 14.4933L23.6454 20.7392L17.4075 26.9851C17.2575 27.1339 17.0796 27.2516 16.8839 27.3315C16.6883 27.4114 16.4788 27.4519 16.2675 27.4507ZM8.59263 3.36626C7.91293 3.36318 7.23938 3.495 6.61098 3.75408C5.98258 4.01315 5.41184 4.39434 4.9318 4.87555C3.9621 5.85036 3.41775 7.16943 3.41775 8.54441C3.41775 9.9194 3.9621 11.2385 4.9318 12.2133L16.2675 23.5651L27.6033 12.2133C28.573 11.2385 29.1173 9.9194 29.1173 8.54441C29.1173 7.16943 28.573 5.85036 27.6033 4.87555C26.6137 3.94061 25.3039 3.41972 23.9424 3.41972C22.581 3.41972 21.2712 3.94061 20.2816 4.87555L17.4075 7.76568C17.2583 7.91618 17.0807 8.03563 16.885 8.11714C16.6894 8.19866 16.4795 8.24063 16.2675 8.24063C16.0556 8.24063 15.8457 8.19866 15.65 8.11714C15.4544 8.03563 15.2768 7.91618 15.1275 7.76568L12.2535 4.87555C11.7734 4.39434 11.2027 4.01315 10.5743 3.75408C9.94589 3.495 9.27233 3.36318 8.59263 3.36626Z" fill="#D2D2D2"/>
</svg>
