<svg width="27" height="28" viewBox="0 0 27 28" fill="none" xmlns="http://www.w3.org/2000/svg">
<path d="M20.4027 27.0628H6.59785C4.59803 27.0628 2.96423 25.7326 2.85732 24.0576L2.85694 24.0496L1.57904 4.64681H25.421L24.1488 24.0532C24.04 25.7345 22.4074 27.0628 20.4094 27.0628H20.4023H20.4027L20.4027 27.0628ZM3.82101 6.44686L4.97452 23.9524C5.01937 24.6838 5.72867 25.2624 6.59729 25.2628H20.4012C21.2684 25.2625 21.9769 24.6858 22.0238 23.9595L22.0241 23.956L23.179 6.44681L3.82101 6.44686ZM27 6.44686H0V4.64683H27V6.44686ZM10.8 0.0628316H16.2C18.2757 0.0648882 19.9578 1.49272 19.9602 3.25462V6.44681H7.03978V3.25481C7.0422 1.49275 8.72421 0.0648618 10.7998 0.0628052H10.8L10.8 0.0628316ZM17.8398 4.64683V3.25483C17.839 2.48634 17.1053 1.86352 16.2001 1.86284H10.8C9.89471 1.86349 9.16102 2.48631 9.16021 3.25476V4.64681L17.8398 4.64683ZM14.5602 22.7308H12.4398V8.97882H14.5602V22.7308ZM19.9602 22.7308H17.8398V8.97882H19.9602V22.7308ZM9.16021 22.7308H7.03978V8.97882H9.16021V22.7308Z" fill="#F7F7F7"/>
</svg>
