<svg width="54" height="54" viewBox="0 0 54 54" fill="none" xmlns="http://www.w3.org/2000/svg">
<path d="M26.6259 0C19.3878 0 18.4857 0.0349509 15.653 0.154782C12.8087 0.294586 10.8847 0.735633 9.18709 1.39471C7.43622 2.08041 5.94498 2.9908 4.47205 4.47205C2.98913 5.94498 2.07042 7.43622 1.39471 9.18709C0.735633 10.8847 0.294586 12.8087 0.154782 15.653C0.0266292 18.4874 0 19.3878 0 26.6259C0 33.8641 0.0349509 34.7661 0.154782 37.5988C0.294586 40.4348 0.735633 42.3671 1.39471 44.0647C2.08041 45.8156 2.9908 47.3068 4.47205 48.7798C5.94498 50.2627 7.43622 51.1814 9.18709 51.8571C10.8847 52.5079 12.817 52.9572 15.653 53.097C18.4874 53.2252 19.3878 53.2518 26.6259 53.2518C33.8641 53.2518 34.7661 53.2169 37.5988 53.097C40.4348 52.9572 42.3671 52.5062 44.0647 51.8571C45.8156 51.1714 47.3068 50.261 48.7798 48.7798C50.2627 47.3068 51.1814 45.8239 51.8571 44.0647C52.5079 42.3671 52.9572 40.4348 53.097 37.5988C53.2252 34.7645 53.2518 33.8641 53.2518 26.6259C53.2518 19.3878 53.2169 18.4857 53.097 15.653C52.9572 12.817 52.5062 10.8747 51.8571 9.18709C51.1714 7.43622 50.261 5.94498 48.7798 4.47205C47.3068 2.98913 45.8239 2.07042 44.0647 1.39471C42.3671 0.735633 40.4348 0.294586 37.5988 0.154782C34.7645 0.0266292 33.8641 0 26.6259 0ZM26.6259 4.79326C33.7343 4.79326 34.5831 4.82821 37.3924 4.94805C39.9838 5.06954 41.3952 5.50227 42.3322 5.86842C43.5821 6.35274 44.4559 6.92527 45.4012 7.86062C46.3282 8.78765 46.9007 9.67141 47.3851 10.9213C47.7512 11.8583 48.1839 13.2697 48.3054 15.861C48.4253 18.6704 48.4602 19.5209 48.4602 26.6276C48.4602 33.7343 48.4253 34.5847 48.2955 37.3941C48.1557 39.9855 47.7229 41.3968 47.3584 42.3338C46.8542 43.5837 46.2916 44.4575 45.3629 45.4029C44.4259 46.3299 43.5338 46.9024 42.2939 47.3867C41.3685 47.7529 39.9372 48.1856 37.3359 48.3071C34.5115 48.4269 33.6793 48.4619 26.5527 48.4619C19.426 48.4619 18.5955 48.4269 15.7678 48.2971C13.1765 48.1573 11.7468 47.7246 10.8098 47.3601C9.54492 46.8558 8.6778 46.2933 7.74911 45.3646C6.81209 44.4276 6.21626 43.5355 5.75691 42.2956C5.3841 41.3702 4.95803 39.9389 4.81989 37.3375C4.72503 34.5464 4.68009 33.681 4.68009 26.5876C4.68009 19.4976 4.72503 18.6305 4.81989 15.8045C4.95803 13.2031 5.3841 11.7751 5.75691 10.8464C6.21626 9.57987 6.81376 8.71442 7.74911 7.7774C8.67614 6.85037 9.54492 6.25121 10.8098 5.78187C11.7468 5.41739 13.1415 4.98466 15.7429 4.85484C18.5672 4.75332 19.3994 4.7167 26.5161 4.7167L26.6259 4.79326ZM26.6259 12.9601C19.0682 12.9601 12.9568 19.0799 12.9568 26.6292C12.9568 34.187 19.0765 40.2984 26.6259 40.2984C34.1836 40.2984 40.295 34.1786 40.295 26.6292C40.295 19.0715 34.1753 12.9601 26.6259 12.9601ZM26.6259 35.5051C21.7195 35.5051 17.7501 31.5357 17.7501 26.6292C17.7501 21.7228 21.7195 17.7534 26.6259 17.7534C31.5324 17.7534 35.5018 21.7228 35.5018 26.6292C35.5018 31.5357 31.5324 35.5051 26.6259 35.5051ZM44.0414 12.4142C44.0414 14.1834 42.6018 15.6114 40.8409 15.6114C39.0718 15.6114 37.6438 14.1817 37.6438 12.4142C37.6438 10.655 39.0817 9.2237 40.8409 9.2237C42.6001 9.2237 44.0414 10.655 44.0414 12.4142Z" fill="#D2D2D2"/>
</svg>
