<svg width="67" height="21" viewBox="0 0 67 21" fill="none" xmlns="http://www.w3.org/2000/svg">
<path d="M23.6673 20.7032L27.0558 1.32774H32.4756L29.0846 20.7032H23.6673ZM48.666 1.74542C47.5924 1.35288 45.9098 0.931641 43.8086 0.931641C38.4529 0.931641 34.6807 3.55954 34.6484 7.32586C34.6183 10.1099 37.3417 11.6632 39.3975 12.5899C41.5073 13.5398 42.2164 14.1454 42.2062 14.9933C42.1927 16.2922 40.5215 16.8852 38.9635 16.8852C36.7944 16.8852 35.6419 16.5916 33.8619 15.8684L33.1633 15.5605L32.4028 19.8978C33.6687 20.4389 36.0095 20.9073 38.4402 20.9316C44.1376 20.9316 47.8361 18.3337 47.8782 14.3117C47.8984 12.1075 46.4545 10.4303 43.3275 9.04734C41.4331 8.15102 40.2729 7.55291 40.2852 6.6453C40.2852 5.83994 41.2673 4.97875 43.3894 4.97875C45.1614 4.95193 46.4456 5.32853 47.4459 5.72107L47.9315 5.94466L48.666 1.74542ZM62.6133 1.32744H58.4253C57.128 1.32744 56.157 1.67247 55.5873 2.93421L47.538 20.6904H53.2294C53.2294 20.6904 54.1597 18.303 54.3701 17.7788C54.9921 17.7788 60.521 17.7871 61.3114 17.7871C61.4735 18.4655 61.9708 20.6904 61.9708 20.6904H67L62.6133 1.32744ZM55.9685 13.839C56.4169 12.7226 58.128 8.42261 58.128 8.42261C58.0961 8.47418 58.573 7.30082 58.8466 6.57335L59.2128 8.24386C59.2128 8.24386 60.2506 12.8689 60.4676 13.8387L55.9685 13.839ZM19.0663 1.32744L13.7601 14.5407L13.1948 11.8556C12.2069 8.76022 9.1293 5.40662 5.68865 3.7277L10.5406 20.6723L16.275 20.6661L24.8077 1.32725L19.0663 1.32744Z" fill="#0E4595"/>
<path d="M8.8089 1.32674H0.0692745L0 1.72987C6.79934 3.33367 11.2982 7.20946 13.1662 11.867L11.2658 2.9631C10.9378 1.7362 9.98605 1.3695 8.8089 1.32674Z" fill="#F2AE14"/>
</svg>
