<svg width="54" height="54" viewBox="0 0 54 54" fill="none" xmlns="http://www.w3.org/2000/svg">
<path d="M53.2518 38.034C53.2518 47.7258 47.474 53.5036 37.7822 53.5036H34.6137C33.1493 53.5036 31.9511 52.3055 31.9511 50.8411V35.4779C31.9511 34.759 32.5369 34.1466 33.2558 34.1466L37.9419 34.0667C38.3147 34.0401 38.6342 33.7738 38.7141 33.4011L39.646 28.3155C39.7259 27.8363 39.3531 27.3836 38.8472 27.3836L33.1759 27.4635C32.4304 27.4635 31.8446 26.8777 31.818 26.1588L31.7115 19.6355C31.7115 19.2095 32.0576 18.8367 32.5102 18.8367L38.9005 18.7302C39.3531 18.7302 39.6992 18.3841 39.6992 17.9315L39.5927 11.5412C39.5927 11.0885 39.2466 10.7424 38.794 10.7424L31.605 10.849C27.1851 10.9288 23.6704 14.5499 23.7503 18.9698L23.8834 26.292C23.9101 27.0375 23.3243 27.6233 22.5788 27.6499L19.3837 27.7031C18.931 27.7031 18.5849 28.0493 18.5849 28.5019L18.6648 33.5608C18.6648 34.0135 19.0109 34.3596 19.4635 34.3596L22.6587 34.3064C23.4042 34.3064 23.9899 34.8921 24.0166 35.611L24.2562 50.7878C24.2828 52.2789 23.0847 53.5036 21.5936 53.5036H15.4697C5.77782 53.5036 0 47.7258 0 38.0074V15.7215C0 6.02965 5.77782 0.251823 15.4697 0.251823H37.7822C47.474 0.251823 53.2518 6.02965 53.2518 15.7215V38.034Z" fill="#F7F7F7"/>
</svg>
