<svg width="54" height="53" viewBox="0 0 54 53" fill="none" xmlns="http://www.w3.org/2000/svg">
<path d="M39 0H14C8.50002 0 0.500022 2.5 2.22027e-05 14L0 38C0 48.5 7.57145 53 13 53H38C52.5 53 53 41.5 53 38V14.7643C53.5 5.76429 47 0 39 0ZM41.5364 18.7866C41.5601 19.1179 41.5601 19.4609 41.5601 19.7922C41.5601 30.0491 33.752 41.8676 19.4846 41.8676C15.0837 41.8676 11.0023 40.59 7.57145 38.3895C8.19846 38.4605 8.80181 38.4841 9.44065 38.4841C13.0726 38.4841 16.4087 37.2538 19.0706 35.1716C15.6634 35.1007 12.8005 32.8647 11.8185 29.7888C13.0134 29.9663 14.09 29.9663 15.3203 29.6469C11.7712 28.9252 9.1094 25.802 9.1094 22.0281V21.9335C10.1386 22.5132 11.3453 22.8681 12.6112 22.9154C11.547 22.2075 10.6745 21.2472 10.0718 20.1201C9.46899 18.993 9.15463 17.7342 9.15672 16.456C9.15672 15.0127 9.53529 13.6877 10.2096 12.5402C14.0308 17.2487 19.7685 20.3246 26.2043 20.6558C25.104 15.3913 29.0435 11.1205 33.7757 11.1205C36.0116 11.1205 38.0228 12.0551 39.4424 13.5694C41.1933 13.2382 42.8732 12.5875 44.3639 11.7002C43.7842 13.4984 42.5657 15.0127 40.9567 15.971C42.5183 15.8054 44.0326 15.3676 45.4286 14.7643C44.3757 16.3141 43.0507 17.6864 41.5364 18.7866Z" fill="#F7F7F7"/>
</svg>
