<svg width="54" height="54" viewBox="0 0 54 54" fill="none" xmlns="http://www.w3.org/2000/svg">
<path d="M53.2518 37.7822C53.2518 47.474 47.474 53.2518 37.7822 53.2518H34.6137C33.1493 53.2518 31.9511 52.0537 31.9511 50.5892V35.2261C31.9511 34.5072 32.5369 33.8948 33.2558 33.8948L37.9419 33.8149C38.3147 33.7883 38.6342 33.522 38.7141 33.1493L39.646 28.0637C39.7259 27.5844 39.3531 27.1318 38.8472 27.1318L33.1759 27.2117C32.4304 27.2117 31.8446 26.6259 31.818 25.907L31.7115 19.3837C31.7115 18.9576 32.0576 18.5849 32.5102 18.5849L38.9005 18.4784C39.3531 18.4784 39.6992 18.1323 39.6992 17.6796L39.5927 11.2894C39.5927 10.8367 39.2466 10.4906 38.794 10.4906L31.605 10.5971C27.1851 10.677 23.6704 14.2981 23.7503 18.718L23.8834 26.0401C23.9101 26.7857 23.3243 27.3714 22.5788 27.3981L19.3837 27.4513C18.931 27.4513 18.5849 27.7975 18.5849 28.2501L18.6648 33.309C18.6648 33.7617 19.0109 34.1078 19.4635 34.1078L22.6587 34.0545C23.4042 34.0545 23.9899 34.6403 24.0166 35.3592L24.2562 50.536C24.2828 52.027 23.0847 53.2518 21.5936 53.2518H15.4697C5.77782 53.2518 0 47.474 0 37.7555V15.4697C0 5.77782 5.77782 0 15.4697 0H37.7822C47.474 0 53.2518 5.77782 53.2518 15.4697V37.7822Z" fill="#D2D2D2"/>
</svg>
