<svg width="30" height="20" viewBox="0 0 30 20" fill="none" xmlns="http://www.w3.org/2000/svg">
<path d="M28.4167 8.33332H1.58334C0.70889 8.33332 8.06518e-06 9.0422 8.06518e-06 9.91665V10.0833C8.06518e-06 10.9578 0.70889 11.6667 1.58334 11.6667H28.4167C29.2911 11.6667 30 10.9578 30 10.0833V9.91665C30 9.0422 29.2911 8.33332 28.4167 8.33332Z" fill="#D2D2D2"/>
<path d="M28.4167 16.6667H1.58334C0.70889 16.6667 8.06518e-06 17.3755 8.06518e-06 18.25V18.4167C8.06518e-06 19.2911 0.70889 20 1.58334 20H28.4167C29.2911 20 30 19.2911 30 18.4167V18.25C30 17.3755 29.2911 16.6667 28.4167 16.6667Z" fill="#D2D2D2"/>
<path d="M28.4167 0H1.58333C0.708882 0 0 0.708883 0 1.58333V1.75C0 2.62445 0.708882 3.33334 1.58333 3.33334H28.4167C29.2911 3.33334 30 2.62445 30 1.75V1.58333C30 0.708883 29.2911 0 28.4167 0Z" fill="#D2D2D2"/>
</svg>
