<svg width="27" height="27" viewBox="0 0 27 27" fill="none" xmlns="http://www.w3.org/2000/svg">
<path d="M20.4027 27H6.59785C4.59803 27 2.96423 25.6698 2.85732 23.9948L2.85694 23.9868L1.57904 4.584H25.421L24.1488 23.9904C24.04 25.6717 22.4074 27 20.4094 27H20.4023H20.4027L20.4027 27ZM3.82101 6.38406L4.97452 23.8896C5.01937 24.621 5.72867 25.1996 6.59729 25.2H20.4012C21.2684 25.1997 21.9769 24.623 22.0238 23.8967L22.0241 23.8932L23.179 6.38401L3.82101 6.38406ZM27 6.38406H0V4.58403H27V6.38406ZM10.8 2.64029e-05H16.2C18.2757 0.00208304 19.9578 1.42991 19.9602 3.19182V6.38401H7.03978V3.192C7.0422 1.42994 8.72421 0.00205663 10.7998 0H10.8L10.8 2.64029e-05ZM17.8398 4.58403V3.19203C17.839 2.42353 17.1053 1.80072 16.2001 1.80003H10.8C9.89471 1.80069 9.16102 2.42351 9.16021 3.19195V4.584L17.8398 4.58403ZM14.5602 22.668H12.4398V8.91601H14.5602V22.668ZM19.9602 22.668H17.8398V8.91601H19.9602V22.668ZM9.16021 22.668H7.03978V8.91601H9.16021V22.668Z" fill="#D2D2D2"/>
</svg>
